<svg width="522" height="583" viewBox="0 0 522 583" fill="none" xmlns="http://www.w3.org/2000/svg">
<path d="M266.242 0.748553C250.877 3.25178 236.504 7.31953 223.288 13.4211C206.602 20.9308 198.341 26.2502 185.951 37.6712C126.311 93.0551 157.205 171.124 241.46 177.539C297.466 181.92 353.14 154.697 374.783 112.142C403.198 56.6018 363.218 2.62597 291.849 0.122746C282.267 -0.190158 270.867 0.122746 266.242 0.748553Z" fill="white"/>
<path d="M235.909 394.48C205.66 398.282 175.907 416.63 164.006 438.614C150.121 464.235 152.435 496.964 169.956 523.411C176.899 533.99 192.271 549.528 202.85 556.801C214.09 564.57 235.248 573.827 250.456 577.959C270.952 583.414 302.524 583.414 319.88 578.124C364.51 564.239 388.312 531.676 383.354 491.344C377.403 443.573 331.947 404.233 271.944 395.142C254.753 392.497 251.447 392.332 235.909 394.48Z" fill="white"/>
<ellipse cx="387" cy="368.5" rx="135" ry="108.5" fill="white"/>
<ellipse cx="387" cy="206.5" rx="135" ry="108.5" fill="white"/>
<rect width="293" height="582" fill="white"/>
<path d="M268.5 32.9C259.2 34.5 250.5 37.1 242.5 41C232.4 45.8 227.4 49.2 219.9 56.5C183.8 91.9 202.5 141.8 253.5 145.9C287.4 148.7 321.1 131.3 334.2 104.1C351.4 68.6 327.2 34.1 284 32.5C278.2 32.3 271.3 32.5 268.5 32.9Z" fill="#FFC8DD"/>
<path d="M113.714 150.182C105.419 151.886 97.9373 155.781 92.3258 161.461C83.4614 170.468 79.8831 180.205 79.1512 197.65C78.6632 209.822 79.7205 218.828 85.3319 251.61C91.6752 288.611 91.6752 287.15 84.6 328.289C79.8831 355.634 78.5006 368.617 79.1512 380.22C80.7777 409.756 95.5788 426.066 122.416 427.851C135.916 428.662 152.994 426.147 169.991 420.629C219.356 404.644 262.621 364.641 276.364 322.123C280.349 309.951 281 305.002 281 288.53C281 272.058 280.349 267.108 276.364 254.937C262.621 212.418 219.356 172.415 169.991 156.43C149.172 149.695 128.028 147.342 113.714 150.182Z" fill="#FFAFCC"/>
<path d="M364 145.5C321.5 152.5 292 179.1 291.8 210.5C291.8 220.3 293.2 226.6 297.1 234.6C313.2 267.3 361 285.4 407.7 276.5C434.4 271.4 457.3 257.1 468.1 238.5C473.1 230 475.1 223.7 475.7 214.5C476.7 199.5 471.3 185.5 459.7 173.3C447.5 160.5 432.9 152.4 412.9 147.5C399.7 144.2 377.1 143.3 364 145.5Z" fill="#FFAFCC"/>
<path d="M367.5 298.1C341.9 301.6 317.6 313.7 305 329.3C295.7 340.8 291.8 351.5 291.8 365.5C292 392.3 313.2 415.8 347 426.4C373.5 434.8 406.3 433.3 431.1 422.6C459.9 410.1 477.4 386.2 475.7 361.5C475.1 352.3 473.1 346 468.1 337.5C457.3 319 434.9 304.9 408 299.5C398.4 297.6 376.6 296.8 367.5 298.1Z" fill="#FFAFCC"/>
<path d="M250.2 430.1C231.9 432.4 213.9 443.5 206.7 456.8C198.3 472.3 199.7 492.1 210.3 508.1C214.5 514.5 223.8 523.9 230.2 528.3C237 533 249.8 538.6 259 541.1C271.4 544.4 290.5 544.4 301 541.2C328 532.8 342.4 513.1 339.4 488.7C335.8 459.8 308.3 436 272 430.5C261.6 428.9 259.6 428.8 250.2 430.1Z" fill="#FFC8DD"/>
<path d="M292 212H402V371H292V212Z" fill="#FFAFCC"/>
<ellipse cx="385" cy="356.5" rx="93" ry="74.5" fill="#FFAFCC"/>
<ellipse cx="385" cy="218.5" rx="93" ry="74.5" fill="#FFAFCC"/>
</svg>
