<svg width="54" height="54" viewBox="0 0 54 54" fill="none" xmlns="http://www.w3.org/2000/svg">
<g clip-path="url(#clip0_204_49)">
<path d="M40.5 6.75C42.2902 6.75 44.0071 7.46116 45.273 8.72703C46.5388 9.9929 47.25 11.7098 47.25 13.5V40.5C47.25 42.2902 46.5388 44.0071 45.273 45.273C44.0071 46.5388 42.2902 47.25 40.5 47.25H13.5C11.7098 47.25 9.9929 46.5388 8.72703 45.273C7.46116 44.0071 6.75 42.2902 6.75 40.5V13.5C6.75 11.7098 7.46116 9.9929 8.72703 8.72703C9.9929 7.46116 11.7098 6.75 13.5 6.75H40.5ZM40.5 11.25H13.5C12.9033 11.25 12.331 11.4871 11.909 11.909C11.4871 12.331 11.25 12.9033 11.25 13.5V40.5C11.25 41.0967 11.4871 41.669 11.909 42.091C12.331 42.5129 12.9033 42.75 13.5 42.75H40.5C41.0967 42.75 41.669 42.5129 42.091 42.091C42.5129 41.669 42.75 41.0967 42.75 40.5V13.5C42.75 12.9033 42.5129 12.331 42.091 11.909C41.669 11.4871 41.0967 11.25 40.5 11.25ZM18 22.5C18.5511 22.5001 19.083 22.7024 19.4948 23.0686C19.9067 23.4348 20.1698 23.9394 20.2343 24.4868L20.25 24.75V36C20.2494 36.5735 20.0298 37.1251 19.6361 37.5421C19.2424 37.9591 18.7044 38.21 18.1319 38.2436C17.5594 38.2772 16.9956 38.091 16.5559 37.7229C16.1161 37.3548 15.8335 36.8327 15.7657 36.2633L15.75 36V24.75C15.75 24.1533 15.9871 23.581 16.409 23.159C16.831 22.7371 17.4033 22.5 18 22.5ZM24.75 20.25C25.2769 20.2499 25.7872 20.4348 26.1918 20.7724C26.5964 21.1099 26.8697 21.5788 26.964 22.0972C27.4168 21.8347 27.8848 21.5995 28.3658 21.393C29.8665 20.7518 32.1143 20.3985 34.1438 21.0352C35.208 21.3728 36.2768 22.0027 37.0688 23.076C37.7775 24.0322 38.16 25.1955 38.2365 26.5028L38.25 27V36C38.2494 36.5735 38.0298 37.1251 37.6361 37.5421C37.2424 37.9591 36.7044 38.21 36.1319 38.2436C35.5594 38.2772 34.9956 38.091 34.5559 37.7229C34.1161 37.3548 33.8335 36.8327 33.7658 36.2633L33.75 36V27C33.75 26.2575 33.57 25.911 33.453 25.7512C33.2851 25.5423 33.0536 25.3938 32.7937 25.3283C32.0107 25.0807 30.8835 25.2113 30.1342 25.5308C29.0092 26.0123 27.9788 26.7682 27.2768 27.468L27 27.765V36C26.9994 36.5735 26.7798 37.1251 26.3861 37.5421C25.9924 37.9591 25.4544 38.21 24.8819 38.2436C24.3094 38.2772 23.7456 38.091 23.3059 37.7229C22.8661 37.3548 22.5835 36.8327 22.5157 36.2633L22.5 36V22.5C22.5 21.9033 22.7371 21.331 23.159 20.909C23.581 20.4871 24.1533 20.25 24.75 20.25ZM18 15.75C18.5967 15.75 19.169 15.9871 19.591 16.409C20.0129 16.831 20.25 17.4033 20.25 18C20.25 18.5967 20.0129 19.169 19.591 19.591C19.169 20.0129 18.5967 20.25 18 20.25C17.4033 20.25 16.831 20.0129 16.409 19.591C15.9871 19.169 15.75 18.5967 15.75 18C15.75 17.4033 15.9871 16.831 16.409 16.409C16.831 15.9871 17.4033 15.75 18 15.75Z" fill="white"/>
</g>
<defs>
<clipPath id="clip0_204_49">
<rect width="54" height="54" fill="white"/>
</clipPath>
</defs>
</svg>
