<svg width="54" height="54" viewBox="0 0 54 54" fill="none" xmlns="http://www.w3.org/2000/svg">
<g clip-path="url(#clip0_204_45)">
<path d="M14.2087 13.896C13.6462 12.4605 13.6687 10.8202 13.9185 9.31949C15.6379 9.83468 17.2528 10.6497 18.6885 11.727C19.3185 12.2085 20.1442 12.3637 20.9137 12.132C22.8883 11.5412 24.939 11.244 27 11.25C29.1622 11.25 31.2165 11.565 33.0817 12.1297C33.8512 12.3637 34.677 12.2062 35.3047 11.7247C36.7398 10.6477 38.3539 9.83268 40.0725 9.31724C40.3222 10.818 40.3425 12.4582 39.7845 13.8915C39.447 14.7555 39.6157 15.75 40.2525 16.4565C41.8815 18.2632 42.75 20.34 42.75 22.5C42.75 27.2565 38.3175 31.9207 31.1985 33.3405C29.4165 33.696 28.7212 35.9392 30.0847 37.224C30.96 38.0475 31.5 39.2085 31.5 40.5V47.25C31.5 47.8467 31.737 48.419 32.159 48.841C32.581 49.2629 33.1533 49.5 33.75 49.5C34.3467 49.5 34.919 49.2629 35.341 48.841C35.7629 48.419 36 47.8467 36 47.25V40.5C36 39.2175 35.73 37.998 35.2485 36.8932C42.0367 34.5375 47.25 29.2342 47.25 22.5C47.25 19.4692 46.161 16.6837 44.3542 14.3505C44.8267 12.5055 44.784 10.647 44.604 9.22049C44.4442 7.94249 44.2215 6.26849 43.3215 5.26949C41.9827 3.78674 39.7665 4.65974 38.1915 5.19749C36.502 5.76919 34.8945 6.55966 33.4102 7.54874C31.3156 7.01417 29.1618 6.74581 27 6.74999C24.7635 6.74999 22.6057 7.03124 20.5852 7.55099C19.101 6.56189 17.4936 5.77142 15.804 5.19974C14.229 4.65974 12.0105 3.78674 10.6717 5.26949C9.75375 6.28649 9.5625 7.82774 9.39825 9.13724L9.387 9.22274C9.207 10.6515 9.1665 12.5122 9.639 14.3595C7.839 16.6905 6.75 19.4715 6.75 22.5C6.75 29.232 11.9632 34.5375 18.7515 36.8932C18.2602 38.0166 18.0044 39.2289 18 40.455L17.622 40.5315C16.0087 40.7542 14.976 40.554 14.274 40.257C12.564 39.5325 11.682 37.7077 10.6065 36.3127C9.936 35.4465 8.9595 34.3642 7.461 33.8647C7.18059 33.7714 6.88454 33.7341 6.58975 33.7552C6.29496 33.7762 6.0072 33.8551 5.7429 33.9874C5.20912 34.2545 4.80332 34.7227 4.61475 35.289C4.42618 35.8553 4.4703 36.4733 4.73739 37.0071C5.00449 37.5409 5.47269 37.9467 6.039 38.1352C7.2945 38.5537 8.163 40.7047 8.9595 41.6587C9.79875 42.6667 10.9147 43.7197 12.5145 44.3992C14.049 45.0517 15.8512 45.2835 18 45.0202V47.25C18 47.8467 18.2371 48.419 18.659 48.841C19.081 49.2629 19.6533 49.5 20.25 49.5C20.8467 49.5 21.419 49.2629 21.841 48.841C22.2629 48.419 22.5 47.8467 22.5 47.25V40.5C22.5 39.2085 23.04 38.0475 23.9152 37.224C25.281 35.937 24.5835 33.696 22.8015 33.3405C15.6802 31.9207 11.25 27.2565 11.25 22.5C11.25 20.3445 12.1162 18.2677 13.743 16.461C14.3797 15.7545 14.5462 14.76 14.2087 13.896Z" fill="white"/>
</g>
<defs>
<clipPath id="clip0_204_45">
<rect width="54" height="54" fill="white"/>
</clipPath>
</defs>
</svg>
