<svg width="54" height="54" viewBox="0 0 54 54" fill="none" xmlns="http://www.w3.org/2000/svg">
<g clip-path="url(#clip0_204_54)">
<path fill-rule="evenodd" clip-rule="evenodd" d="M9 27C9 22.2261 10.8964 17.6477 14.2721 14.2721C17.6477 10.8964 22.2261 9 27 9C39.0757 9 46.0013 19.0013 45.0135 27.8775C44.7435 30.321 44.028 31.7542 43.3935 32.5912C42.7612 33.4305 42.1087 33.8062 41.7442 33.9862C40.05 34.8345 39.195 34.4632 38.8575 34.1955C38.43 33.858 38.0205 33.0637 38.2185 31.869L38.232 31.797L39.3638 20.475C39.4158 19.9605 39.289 19.4438 39.0048 19.0118C38.7206 18.5799 38.2962 18.259 37.8032 18.1032C37.3101 17.9473 36.7784 17.9661 36.2976 18.1563C35.8167 18.3465 35.4161 18.6966 35.163 19.1475C34.1083 18.07 32.8488 17.2144 31.4585 16.6309C30.0682 16.0474 28.5753 15.7479 27.0675 15.75C20.8778 15.75 15.75 20.7653 15.75 27C15.75 33.2415 20.898 38.25 27.0855 38.25C29.8125 38.25 32.373 37.269 34.3687 35.604C34.7625 36.414 35.325 37.1385 36.063 37.7235C38.1263 39.357 40.95 39.4155 43.758 38.0115C44.5163 37.6335 45.8055 36.864 46.9845 35.3048C48.1635 33.7432 49.1355 31.5203 49.4865 28.3748C50.751 16.9965 41.9243 4.5 27 4.5C14.5733 4.5 4.5 14.5733 4.5 27C4.5 39.4268 14.5733 49.5 27 49.5C30.4699 49.5046 33.8935 48.7035 37.0013 47.16C37.5311 46.8918 37.9334 46.425 38.1205 45.8614C38.3076 45.2978 38.2643 44.6831 38 44.1513C37.7358 43.6194 37.2719 43.2137 36.7097 43.0224C36.1475 42.8312 35.5325 42.8699 34.9988 43.1303C32.2541 44.4917 29.2073 45.1301 26.1469 44.9849C23.0865 44.8397 20.1139 43.9157 17.5104 42.3005C14.9069 40.6852 12.7589 38.4322 11.2696 35.7547C9.78032 33.0772 8.99913 30.0638 9 27ZM20.25 27C20.25 23.2943 23.319 20.25 27.0675 20.25C31.3875 20.25 34.6365 24.2257 33.759 28.395C33.1042 31.4955 30.2962 33.75 27.0855 33.75C23.328 33.75 20.25 30.7013 20.25 27Z" fill="white"/>
</g>
<defs>
<clipPath id="clip0_204_54">
<rect width="54" height="54" fill="white"/>
</clipPath>
</defs>
</svg>
